<svg xmlns="http://www.w3.org/2000/svg" width="40" height="40" viewBox="0 0 48 48">
<path d="M39.246 10.176a36.279 36.279 0 00-8.953-2.778.14.14 0 00-.145.07 25.222 25.222 0 00-1.117 2.29 33.652 33.652 0 00-10.058 0 21.846 21.846 0 00-1.133-2.29c-.027-.054-.086-.077-.145-.07a36.217 36.217 0 00-8.953 2.778.124.124 0 00-.058.05c-5.707 8.524-7.27 16.836-6.5 25.047 0 .04.023.079.054.102 3.766 2.766 7.41 4.441 10.989 5.555a.144.144 0 00.152-.051 26.167 26.167 0 002.25-3.656.144.144 0 00-.078-.196 23.824 23.824 0 01-3.43-1.636.14.14 0 01-.016-.235c.23-.172.461-.351.684-.531a.132.132 0 01.14-.02c7.204 3.29 14.997 3.29 22.114 0a.139.139 0 01.145.016c.218.184.449.363.683.535.078.063.074.184-.012.235a22.867 22.867 0 01-3.433 1.636.142.142 0 00-.078.196 29.898 29.898 0 002.246 3.652c.035.05.097.07.156.055 3.594-1.114 7.238-2.793 11.004-5.555a.134.134 0 00.055-.102c.918-9.492-1.536-17.734-6.504-25.043a.101.101 0 00-.059-.054zM16.703 30.273c-2.168 0-3.953-1.992-3.953-4.433 0-2.445 1.75-4.438 3.953-4.438 2.219 0 3.988 2.008 3.953 4.438 0 2.441-1.75 4.433-3.953 4.433zm14.621 0c-2.168 0-3.953-1.992-3.953-4.433 0-2.445 1.75-4.438 3.953-4.438 2.219 0 3.988 2.008 3.953 4.438 0 2.441-1.734 4.433-3.953 4.433zm0 0" fill="#536dfe"/>
</svg>